# File created by Blade
# Date/Time:  Wed Jan 21 15:23:43 2015
# Frame Rate: 120.000 fps
#------------------------------------------------------
:FULLY-SPECIFIED
:DEGREES
1217
root 33.322187 27.637218 -18.691214 -163.778770 1.906031 -166.167308
Spine 8.037314 -1.037399 10.240076
Head -19.605540 6.752570 2.527914
LeftShoulder -5.854240 -25.144221 0.342171
LeftArm -22.321840 40.161113 -86.217120
LeftForeArm 16.548632 -0.000000 31.067905
LeftHand -0.939342 -0.000000 -10.116296
LeftHandThumb1 -26.253704 0.000000 33.147579
RightShoulder -3.724952 -10.994017 5.851149
RightArm 16.780140 -23.575403 56.228742
RightForeArm -36.721946 0.000000 61.512926
RightHand 4.551464 0.000000 2.475423
RightHandThumb1 -24.326973 -0.000000 -32.862282
LeftUpLeg -8.011044 31.065611 49.077719
LeftLeg -0.673990 -0.000000 0.000000
LeftFoot -12.414089 17.509824 -18.355790
LeftToeBase 39.179749 -0.000000 -0.000000
RightUpLeg -57.312390 -19.124130 24.451418
RightLeg 75.315284 -0.000000 -0.000000
RightFoot -52.962431 -20.236730 21.546256
RightToeBase 22.927591 -0.000000 -0.000000
1218
root 33.357002 27.613845 -18.692094 -163.728990 1.804752 -166.168095
Spine 7.997200 -1.171733 10.238194
Head -19.651682 6.818256 2.533100
LeftShoulder -5.822649 -25.212212 0.357238
LeftArm -22.378481 40.266720 -86.323767
LeftForeArm 16.645096 -0.000000 30.941504
LeftHand -0.869048 0.000000 -10.102592
LeftHandThumb1 -26.253704 0.000000 33.147579
RightShoulder -3.696534 -10.912027 5.851913
RightArm 16.704641 -23.579240 56.350337
RightForeArm -36.782143 -0.000000 61.606435
RightHand 4.531466 -0.000000 2.394120
RightHandThumb1 -24.326973 -0.000000 -32.862282
LeftUpLeg -8.114907 31.154413 49.078826
LeftLeg -0.738347 -0.000000 0.000000
LeftFoot -12.336257 17.472927 -18.287132
LeftToeBase 39.233255 -0.000000 -0.000000
RightUpLeg -57.402296 -18.972443 24.498740
RightLeg 75.429248 -0.000000 -0.000000
RightFoot -53.128269 -20.373280 21.685168
RightToeBase 22.922089 -0.000000 -0.000000
1219
root 33.393127 27.594317 -18.693241 -163.654074 1.668646 -166.153576
Spine 7.916591 -1.345840 10.270274
Head -19.679926 6.948663 2.484147
LeftShoulder -5.813500 -25.248936 0.353345
LeftArm -22.395958 40.381741 -86.411544
LeftForeArm 16.705989 -0.000000 30.804061
LeftHand -0.847947 -0.000000 -10.143736
LeftHandThumb1 -26.253704 0.000000 33.147579
RightShoulder -3.714171 -10.997604 5.891209
RightArm 16.874862 -23.588963 56.285243
RightForeArm -36.700501 -0.000000 61.639543
RightHand 4.525947 0.000000 2.216614
RightHandThumb1 -24.326973 -0.000000 -32.862282
LeftUpLeg -8.283674 31.290567 49.070945
LeftLeg -0.780032 -0.000000 0.000000
LeftFoot -12.233721 17.375523 -18.238264
LeftToeBase 39.288746 -0.000000 -0.000000
RightUpLeg -57.503691 -18.838939 24.579433
RightLeg 75.512551 -0.000000 -0.000000
RightFoot -53.295809 -20.513055 21.796100
RightToeBase 22.906539 -0.000000 -0.000000
1220
root 33.426368 27.576391 -18.695726 -163.601009 1.544588 -166.131608
Spine 7.882252 -1.500641 10.323357
Head -19.765586 7.054786 2.417274
LeftShoulder -5.799857 -25.287593 0.305443
LeftArm -22.415048 40.465858 -86.451586
LeftForeArm 16.869956 -0.000000 30.756302
LeftHand -0.922960 0.000000 -10.138930
LeftHandThumb1 -26.253704 0.000000 33.147579
RightShoulder -3.715010 -10.907443 5.899106
RightArm 16.862821 -23.655068 56.328393
RightForeArm -36.727440 -0.000000 61.699236
RightHand 4.526296 0.000000 2.157005
RightHandThumb1 -24.326973 -0.000000 -32.862282
LeftUpLeg -8.421279 31.418867 49.071007
LeftLeg -0.829332 -0.000000 0.000000
LeftFoot -12.149743 17.305891 -18.164486
LeftToeBase 39.358994 -0.000000 -0.000000
RightUpLeg -57.572066 -18.723953 24.655729
RightLeg 75.577435 -0.000000 -0.000000
RightFoot -53.448654 -20.654824 21.881983
RightToeBase 22.888413 -0.000000 -0.000000
1221
root 33.456983 27.559428 -18.696168 -163.552011 1.433517 -166.164935
Spine 7.848693 -1.644392 10.295589
Head -19.832539 7.114933 2.408435
LeftShoulder -5.773176 -25.343398 0.307516
LeftArm -22.448137 40.510522 -86.527780
LeftForeArm 16.945239 -0.000000 30.675221
LeftHand -0.921925 -0.000000 -10.114412
LeftHandThumb1 -26.253704 0.000000 33.147579
RightShoulder -3.698124 -10.877007 5.922460
RightArm 16.886743 -23.667257 56.392061
RightForeArm -36.778067 -0.000000 61.754559
RightHand 4.565347 -0.000000 2.123229
RightHandThumb1 -24.326973 -0.000000 -32.862282
LeftUpLeg -8.559690 31.598808 48.990915
LeftLeg -0.903081 -0.000000 0.000000
LeftFoot -12.019122 17.208914 -18.071241
LeftToeBase 39.415477 -0.000000 -0.000000
RightUpLeg -57.657075 -18.590864 24.668673
RightLeg 75.664539 -0.000000 -0.000000
RightFoot -53.607878 -20.773996 22.022227
RightToeBase 22.853853 -0.000000 -0.000000
